G75*
%MOIN*%
%OFA0B0*%
%FSLAX25Y25*%
%IPPOS*%
%LPD*%
%AMOC8*
5,1,8,0,0,1.08239X$1,22.5*
%
%ADD10C,0.00600*%
%ADD11C,0.00000*%
D10*
X0146550Y0058981D02*
X0147117Y0058414D01*
X0148819Y0058414D01*
X0147117Y0059548D02*
X0146550Y0060115D01*
X0147117Y0060683D01*
X0148819Y0060683D01*
X0148819Y0062097D02*
X0147117Y0062097D01*
X0146550Y0062664D01*
X0147117Y0063231D01*
X0146550Y0063799D01*
X0147117Y0064366D01*
X0148819Y0064366D01*
X0148819Y0065780D02*
X0147117Y0065780D01*
X0146550Y0066347D01*
X0147117Y0066915D01*
X0146550Y0067482D01*
X0147117Y0068049D01*
X0148819Y0068049D01*
X0147117Y0069463D02*
X0147117Y0070031D01*
X0146550Y0070031D01*
X0146550Y0069463D01*
X0147117Y0069463D01*
X0146550Y0071305D02*
X0146550Y0073006D01*
X0147117Y0073574D01*
X0147684Y0073006D01*
X0147684Y0071872D01*
X0148251Y0071305D01*
X0148819Y0071872D01*
X0148819Y0073574D01*
X0148819Y0074988D02*
X0147117Y0074988D01*
X0146550Y0075555D01*
X0147117Y0076122D01*
X0146550Y0076690D01*
X0147117Y0077257D01*
X0148819Y0077257D01*
X0148251Y0078671D02*
X0148819Y0079238D01*
X0148819Y0080373D01*
X0148251Y0080940D01*
X0147684Y0080940D01*
X0147684Y0078671D01*
X0147117Y0078671D02*
X0148251Y0078671D01*
X0147117Y0078671D02*
X0146550Y0079238D01*
X0146550Y0080373D01*
X0147117Y0082354D02*
X0148251Y0082354D01*
X0148819Y0082922D01*
X0148819Y0084056D01*
X0148251Y0084623D01*
X0147684Y0084623D01*
X0147684Y0082354D01*
X0147117Y0082354D02*
X0146550Y0082922D01*
X0146550Y0084056D01*
X0148819Y0086038D02*
X0148819Y0087172D01*
X0149386Y0086605D02*
X0147117Y0086605D01*
X0146550Y0087172D01*
X0146550Y0088493D02*
X0146550Y0089627D01*
X0146550Y0089060D02*
X0149953Y0089060D01*
X0149953Y0088493D01*
X0148819Y0090948D02*
X0148819Y0091516D01*
X0146550Y0091516D01*
X0146550Y0092083D02*
X0146550Y0090948D01*
X0149953Y0091516D02*
X0150520Y0091516D01*
X0152550Y0092296D02*
X0152550Y0090595D01*
X0153117Y0090028D01*
X0154251Y0090028D01*
X0154819Y0090595D01*
X0154819Y0092296D01*
X0155953Y0092296D02*
X0152550Y0092296D01*
X0153117Y0093711D02*
X0152550Y0094278D01*
X0153117Y0094845D01*
X0152550Y0095412D01*
X0153117Y0095979D01*
X0154819Y0095979D01*
X0154819Y0097961D02*
X0154819Y0099095D01*
X0154251Y0099663D01*
X0152550Y0099663D01*
X0152550Y0097961D01*
X0153117Y0097394D01*
X0153684Y0097961D01*
X0153684Y0099663D01*
X0153684Y0101077D02*
X0154819Y0102211D01*
X0154819Y0102779D01*
X0154251Y0104146D02*
X0154819Y0104714D01*
X0154819Y0106415D01*
X0155953Y0106415D02*
X0152550Y0106415D01*
X0152550Y0104714D01*
X0153117Y0104146D01*
X0154251Y0104146D01*
X0154819Y0101077D02*
X0152550Y0101077D01*
X0148819Y0101244D02*
X0148819Y0100677D01*
X0147684Y0099542D01*
X0146550Y0099542D02*
X0148819Y0099542D01*
X0148251Y0098128D02*
X0146550Y0098128D01*
X0146550Y0096994D02*
X0148251Y0096994D01*
X0148819Y0097561D01*
X0148251Y0098128D01*
X0148251Y0096994D02*
X0148819Y0096426D01*
X0148819Y0095859D01*
X0146550Y0095859D01*
X0146550Y0094538D02*
X0146550Y0093404D01*
X0146550Y0093971D02*
X0149953Y0093971D01*
X0149953Y0093404D01*
X0153117Y0093711D02*
X0154819Y0093711D01*
X0158550Y0094632D02*
X0158550Y0096333D01*
X0159117Y0096900D01*
X0159684Y0096333D01*
X0159684Y0095199D01*
X0160251Y0094632D01*
X0160819Y0095199D01*
X0160819Y0096900D01*
X0160819Y0098315D02*
X0160819Y0098882D01*
X0158550Y0098882D01*
X0158550Y0098315D02*
X0158550Y0099449D01*
X0159117Y0100770D02*
X0158550Y0101337D01*
X0158550Y0103039D01*
X0157983Y0103039D02*
X0160819Y0103039D01*
X0160819Y0101337D01*
X0160251Y0100770D01*
X0159117Y0100770D01*
X0157416Y0101904D02*
X0157416Y0102472D01*
X0157983Y0103039D01*
X0158550Y0104453D02*
X0160819Y0104453D01*
X0160819Y0106155D01*
X0160251Y0106722D01*
X0158550Y0106722D01*
X0154819Y0108397D02*
X0154819Y0110098D01*
X0153684Y0109531D02*
X0153684Y0108397D01*
X0154251Y0107830D01*
X0154819Y0108397D01*
X0153684Y0109531D02*
X0153117Y0110098D01*
X0152550Y0109531D01*
X0152550Y0107830D01*
X0148819Y0108704D02*
X0148251Y0108136D01*
X0147117Y0108136D01*
X0146550Y0108704D01*
X0146550Y0110405D01*
X0147117Y0111820D02*
X0146550Y0112387D01*
X0146550Y0113521D01*
X0147117Y0114088D01*
X0148251Y0114088D01*
X0148819Y0113521D01*
X0148819Y0112387D01*
X0148251Y0111820D01*
X0147117Y0111820D01*
X0148819Y0110405D02*
X0148819Y0108704D01*
X0147117Y0106862D02*
X0146550Y0106862D01*
X0146550Y0106295D01*
X0147117Y0106295D01*
X0147117Y0106862D01*
X0147684Y0104880D02*
X0147684Y0102612D01*
X0147117Y0102612D02*
X0148251Y0102612D01*
X0148819Y0103179D01*
X0148819Y0104313D01*
X0148251Y0104880D01*
X0147684Y0104880D01*
X0146550Y0104313D02*
X0146550Y0103179D01*
X0147117Y0102612D01*
X0158550Y0111820D02*
X0158550Y0113521D01*
X0159117Y0114088D01*
X0159684Y0114088D01*
X0160251Y0113521D01*
X0160251Y0111820D01*
X0158550Y0111820D02*
X0161953Y0111820D01*
X0161953Y0113521D01*
X0161386Y0114088D01*
X0160819Y0114088D01*
X0160251Y0113521D01*
X0160819Y0115503D02*
X0159117Y0115503D01*
X0158550Y0116070D01*
X0158550Y0117771D01*
X0157983Y0117771D02*
X0157416Y0117204D01*
X0157416Y0116637D01*
X0157983Y0117771D02*
X0160819Y0117771D01*
X0164550Y0117251D02*
X0165117Y0116684D01*
X0167386Y0116684D01*
X0166819Y0116117D02*
X0166819Y0117251D01*
X0166819Y0118572D02*
X0164550Y0118572D01*
X0165684Y0118572D02*
X0166819Y0119706D01*
X0166819Y0120273D01*
X0165117Y0114842D02*
X0164550Y0114842D01*
X0164550Y0114275D01*
X0165117Y0114275D01*
X0165117Y0114842D01*
X0164550Y0112861D02*
X0166251Y0112861D01*
X0166819Y0112293D01*
X0166819Y0110592D01*
X0164550Y0110592D01*
X0165684Y0109177D02*
X0165684Y0106909D01*
X0165117Y0106909D02*
X0166251Y0106909D01*
X0166819Y0107476D01*
X0166819Y0108610D01*
X0166251Y0109177D01*
X0165684Y0109177D01*
X0164550Y0108610D02*
X0164550Y0107476D01*
X0165117Y0106909D01*
X0164550Y0105494D02*
X0164550Y0103793D01*
X0165117Y0103226D01*
X0166251Y0103226D01*
X0166819Y0103793D01*
X0166819Y0105494D01*
X0163983Y0105494D01*
X0163416Y0104927D01*
X0163416Y0104360D01*
X0164550Y0101951D02*
X0164550Y0101384D01*
X0165117Y0101384D01*
X0165117Y0101951D01*
X0164550Y0101951D01*
X0165684Y0099970D02*
X0165684Y0097701D01*
X0165117Y0097701D02*
X0166251Y0097701D01*
X0166819Y0098268D01*
X0166819Y0099402D01*
X0166251Y0099970D01*
X0165684Y0099970D01*
X0164550Y0099402D02*
X0164550Y0098268D01*
X0165117Y0097701D01*
X0166819Y0096333D02*
X0166819Y0095766D01*
X0165684Y0094632D01*
X0164550Y0094632D02*
X0166819Y0094632D01*
X0166251Y0093217D02*
X0166819Y0092650D01*
X0166819Y0091516D01*
X0166251Y0090948D01*
X0165117Y0090948D01*
X0164550Y0091516D01*
X0164550Y0092650D01*
X0165117Y0093217D01*
X0166251Y0093217D01*
X0166819Y0089534D02*
X0166819Y0087832D01*
X0166251Y0087265D01*
X0165117Y0087265D01*
X0164550Y0087832D01*
X0164550Y0089534D01*
X0167953Y0089534D01*
X0170550Y0090241D02*
X0173953Y0090241D01*
X0173953Y0089107D02*
X0173953Y0091376D01*
X0172819Y0092790D02*
X0171117Y0092790D01*
X0170550Y0093357D01*
X0170550Y0095059D01*
X0172819Y0095059D01*
X0172819Y0096473D02*
X0170550Y0096473D01*
X0171684Y0096473D02*
X0172819Y0097608D01*
X0172819Y0098175D01*
X0172819Y0100110D02*
X0172819Y0101244D01*
X0172251Y0101811D01*
X0170550Y0101811D01*
X0170550Y0100110D01*
X0171117Y0099542D01*
X0171684Y0100110D01*
X0171684Y0101811D01*
X0171117Y0103226D02*
X0170550Y0103793D01*
X0170550Y0105494D01*
X0169983Y0105494D02*
X0169416Y0104927D01*
X0169416Y0104360D01*
X0169983Y0105494D02*
X0172819Y0105494D01*
X0176550Y0105234D02*
X0177117Y0105801D01*
X0177684Y0105234D01*
X0177684Y0104100D01*
X0178251Y0103533D01*
X0178819Y0104100D01*
X0178819Y0105801D01*
X0178819Y0107216D02*
X0178819Y0107783D01*
X0176550Y0107783D01*
X0176550Y0107216D02*
X0176550Y0108350D01*
X0177117Y0109671D02*
X0176550Y0110238D01*
X0176550Y0111940D01*
X0175983Y0111940D02*
X0178819Y0111940D01*
X0178819Y0110238D01*
X0178251Y0109671D01*
X0177117Y0109671D01*
X0175416Y0110805D02*
X0175416Y0111373D01*
X0175983Y0111940D01*
X0176550Y0113354D02*
X0178819Y0113354D01*
X0178819Y0115056D01*
X0178251Y0115623D01*
X0176550Y0115623D01*
X0176550Y0120721D02*
X0176550Y0122422D01*
X0177117Y0122989D01*
X0178251Y0122989D01*
X0178819Y0122422D01*
X0178819Y0120721D01*
X0179953Y0120721D02*
X0176550Y0120721D01*
X0177117Y0124404D02*
X0176550Y0124971D01*
X0176550Y0126672D01*
X0175983Y0126672D02*
X0175416Y0126105D01*
X0175416Y0125538D01*
X0175983Y0126672D02*
X0178819Y0126672D01*
X0178819Y0124404D02*
X0177117Y0124404D01*
X0182550Y0113568D02*
X0183117Y0113001D01*
X0185386Y0113001D01*
X0184819Y0113568D02*
X0184819Y0112433D01*
X0184251Y0111019D02*
X0183684Y0111019D01*
X0183684Y0108750D01*
X0183117Y0108750D02*
X0184251Y0108750D01*
X0184819Y0109317D01*
X0184819Y0110452D01*
X0184251Y0111019D01*
X0182550Y0110452D02*
X0182550Y0109317D01*
X0183117Y0108750D01*
X0182550Y0107336D02*
X0184251Y0107336D01*
X0184819Y0106769D01*
X0184819Y0105067D01*
X0182550Y0105067D01*
X0182550Y0103793D02*
X0182550Y0103226D01*
X0183117Y0103226D01*
X0183117Y0103793D01*
X0182550Y0103793D01*
X0182550Y0101904D02*
X0183117Y0101337D01*
X0185386Y0101337D01*
X0184819Y0100770D02*
X0184819Y0101904D01*
X0184251Y0099356D02*
X0183684Y0099356D01*
X0183684Y0097087D01*
X0183117Y0097087D02*
X0184251Y0097087D01*
X0184819Y0097654D01*
X0184819Y0098788D01*
X0184251Y0099356D01*
X0182550Y0098788D02*
X0182550Y0097654D01*
X0183117Y0097087D01*
X0182550Y0095673D02*
X0184251Y0095673D01*
X0184819Y0095105D01*
X0184819Y0093404D01*
X0182550Y0093404D01*
X0182550Y0091989D02*
X0182550Y0090288D01*
X0183117Y0089721D01*
X0183684Y0090288D01*
X0183684Y0091989D01*
X0184251Y0091989D02*
X0182550Y0091989D01*
X0184251Y0091989D02*
X0184819Y0091422D01*
X0184819Y0090288D01*
X0184251Y0088306D02*
X0182550Y0088306D01*
X0184251Y0088306D02*
X0184819Y0087739D01*
X0184819Y0086038D01*
X0182550Y0086038D01*
X0182550Y0084623D02*
X0182550Y0082922D01*
X0183117Y0082354D01*
X0183684Y0082922D01*
X0183684Y0084623D01*
X0184251Y0084623D02*
X0182550Y0084623D01*
X0184251Y0084623D02*
X0184819Y0084056D01*
X0184819Y0082922D01*
X0184819Y0080987D02*
X0184819Y0080419D01*
X0183684Y0079285D01*
X0182550Y0079285D02*
X0184819Y0079285D01*
X0184251Y0077871D02*
X0184819Y0077303D01*
X0184819Y0076169D01*
X0183684Y0076169D02*
X0183117Y0075602D01*
X0182550Y0076169D01*
X0182550Y0077871D01*
X0184251Y0077871D01*
X0183684Y0077871D02*
X0183684Y0076169D01*
X0183117Y0074328D02*
X0182550Y0074328D01*
X0182550Y0073760D01*
X0183117Y0073760D01*
X0183117Y0074328D01*
X0183117Y0072346D02*
X0182550Y0071779D01*
X0183117Y0071212D01*
X0182550Y0070644D01*
X0183117Y0070077D01*
X0184819Y0070077D01*
X0184819Y0068663D02*
X0183117Y0068663D01*
X0182550Y0068096D01*
X0183117Y0067528D01*
X0182550Y0066961D01*
X0183117Y0066394D01*
X0184819Y0066394D01*
X0184819Y0064980D02*
X0183117Y0064980D01*
X0182550Y0064412D01*
X0183117Y0063845D01*
X0182550Y0063278D01*
X0183117Y0062711D01*
X0184819Y0062711D01*
X0178819Y0062264D02*
X0178819Y0061130D01*
X0178251Y0060563D01*
X0177117Y0060563D01*
X0176550Y0061130D01*
X0176550Y0062264D01*
X0177684Y0062831D02*
X0177684Y0060563D01*
X0177117Y0059148D02*
X0177684Y0058581D01*
X0177684Y0057447D01*
X0178251Y0056879D01*
X0178819Y0057447D01*
X0178819Y0059148D01*
X0177117Y0059148D02*
X0176550Y0058581D01*
X0176550Y0056879D01*
X0176550Y0055465D02*
X0176550Y0053763D01*
X0177117Y0053196D01*
X0177684Y0053763D01*
X0177684Y0055465D01*
X0178251Y0055465D02*
X0176550Y0055465D01*
X0178251Y0055465D02*
X0178819Y0054898D01*
X0178819Y0053763D01*
X0178251Y0051782D02*
X0178819Y0051215D01*
X0178819Y0049513D01*
X0179953Y0049513D02*
X0176550Y0049513D01*
X0176550Y0051215D01*
X0177117Y0051782D01*
X0178251Y0051782D01*
X0166819Y0055959D02*
X0165117Y0055959D01*
X0164550Y0056526D01*
X0165117Y0057093D01*
X0164550Y0057660D01*
X0165117Y0058227D01*
X0166819Y0058227D01*
X0166819Y0059642D02*
X0165117Y0059642D01*
X0164550Y0060209D01*
X0165117Y0060776D01*
X0164550Y0061343D01*
X0165117Y0061910D01*
X0166819Y0061910D01*
X0166819Y0063325D02*
X0165117Y0063325D01*
X0164550Y0063892D01*
X0165117Y0064459D01*
X0164550Y0065026D01*
X0165117Y0065593D01*
X0166819Y0065593D01*
X0165117Y0067008D02*
X0165117Y0067575D01*
X0164550Y0067575D01*
X0164550Y0067008D01*
X0165117Y0067008D01*
X0165117Y0068850D02*
X0164550Y0069417D01*
X0164550Y0071118D01*
X0165117Y0072533D02*
X0164550Y0073100D01*
X0164550Y0074234D01*
X0165117Y0074801D01*
X0166251Y0074801D01*
X0166819Y0074234D01*
X0166819Y0073100D01*
X0166251Y0072533D01*
X0165117Y0072533D01*
X0166819Y0071118D02*
X0166819Y0069417D01*
X0166251Y0068850D01*
X0165117Y0068850D01*
X0162520Y0071872D02*
X0161953Y0071872D01*
X0160819Y0071872D02*
X0158550Y0071872D01*
X0158550Y0071305D02*
X0158550Y0072439D01*
X0158550Y0073760D02*
X0160819Y0073760D01*
X0160819Y0075462D01*
X0160251Y0076029D01*
X0158550Y0076029D01*
X0159117Y0077444D02*
X0159684Y0078011D01*
X0159684Y0079712D01*
X0160251Y0079712D02*
X0158550Y0079712D01*
X0158550Y0078011D01*
X0159117Y0077444D01*
X0160819Y0078011D02*
X0160819Y0079145D01*
X0160251Y0079712D01*
X0158550Y0081127D02*
X0158550Y0082261D01*
X0158550Y0081694D02*
X0161953Y0081694D01*
X0161953Y0081127D01*
X0164550Y0081033D02*
X0166251Y0081033D01*
X0166819Y0081600D01*
X0166251Y0082168D01*
X0164550Y0082168D01*
X0165117Y0083582D02*
X0164550Y0084149D01*
X0164550Y0085284D01*
X0165117Y0085851D01*
X0166251Y0085851D01*
X0166819Y0085284D01*
X0166819Y0084149D01*
X0166251Y0083582D01*
X0165117Y0083582D01*
X0166251Y0081033D02*
X0166819Y0080466D01*
X0166819Y0079899D01*
X0164550Y0079899D01*
X0164550Y0078484D02*
X0166251Y0078484D01*
X0166819Y0077917D01*
X0166251Y0077350D01*
X0164550Y0077350D01*
X0164550Y0076216D02*
X0166819Y0076216D01*
X0166819Y0076783D01*
X0166251Y0077350D01*
X0170550Y0076643D02*
X0170550Y0074374D01*
X0172819Y0076643D01*
X0172819Y0074374D01*
X0173386Y0072960D02*
X0171117Y0072960D01*
X0170550Y0072393D01*
X0170550Y0071258D01*
X0171117Y0070691D01*
X0173386Y0070691D01*
X0173953Y0071258D01*
X0173953Y0072393D01*
X0173386Y0072960D01*
X0174520Y0072393D02*
X0175087Y0072393D01*
X0175087Y0071258D02*
X0174520Y0071258D01*
X0176550Y0072179D02*
X0176550Y0073313D01*
X0177117Y0073881D01*
X0178251Y0073881D01*
X0178819Y0073313D01*
X0178819Y0072179D01*
X0178251Y0071612D01*
X0177117Y0071612D01*
X0176550Y0072179D01*
X0176550Y0075295D02*
X0178819Y0075295D01*
X0178819Y0076997D01*
X0178251Y0077564D01*
X0176550Y0077564D01*
X0172819Y0078625D02*
X0172819Y0079759D01*
X0172251Y0080326D01*
X0170550Y0080326D01*
X0170550Y0078625D01*
X0171117Y0078057D01*
X0171684Y0078625D01*
X0171684Y0080326D01*
X0171117Y0081741D02*
X0170550Y0082308D01*
X0170550Y0084009D01*
X0169983Y0084009D02*
X0169416Y0083442D01*
X0169416Y0082875D01*
X0169983Y0084009D02*
X0172819Y0084009D01*
X0172819Y0081741D02*
X0171117Y0081741D01*
X0176550Y0083796D02*
X0177117Y0083229D01*
X0179386Y0083229D01*
X0178819Y0083796D02*
X0178819Y0082661D01*
X0178251Y0085117D02*
X0178819Y0085684D01*
X0178819Y0086818D01*
X0178251Y0087385D01*
X0176550Y0087385D01*
X0177117Y0088800D02*
X0176550Y0089367D01*
X0176550Y0090501D01*
X0177684Y0091069D02*
X0177684Y0088800D01*
X0177117Y0088800D02*
X0178251Y0088800D01*
X0178819Y0089367D01*
X0178819Y0090501D01*
X0178251Y0091069D01*
X0177684Y0091069D01*
X0177117Y0096166D02*
X0176550Y0096733D01*
X0176550Y0098435D01*
X0179953Y0098435D01*
X0178819Y0098435D02*
X0178819Y0096733D01*
X0178251Y0096166D01*
X0177117Y0096166D01*
X0177117Y0099849D02*
X0178251Y0099849D01*
X0178819Y0100417D01*
X0178819Y0101551D01*
X0178251Y0102118D01*
X0177684Y0102118D01*
X0177684Y0099849D01*
X0177117Y0099849D02*
X0176550Y0100417D01*
X0176550Y0101551D01*
X0176550Y0103533D02*
X0176550Y0105234D01*
X0172819Y0103226D02*
X0171117Y0103226D01*
X0179953Y0107783D02*
X0180520Y0107783D01*
X0188550Y0105494D02*
X0188550Y0103793D01*
X0189117Y0103226D01*
X0189684Y0103793D01*
X0189684Y0105494D01*
X0190251Y0105494D02*
X0188550Y0105494D01*
X0190251Y0105494D02*
X0190819Y0104927D01*
X0190819Y0103793D01*
X0194550Y0104760D02*
X0194550Y0106462D01*
X0195117Y0107029D01*
X0195684Y0107029D01*
X0196251Y0106462D01*
X0196251Y0104760D01*
X0194550Y0104760D02*
X0197953Y0104760D01*
X0197953Y0106462D01*
X0197386Y0107029D01*
X0196819Y0107029D01*
X0196251Y0106462D01*
X0196819Y0108443D02*
X0195117Y0108443D01*
X0194550Y0109011D01*
X0194550Y0110712D01*
X0193983Y0110712D02*
X0193416Y0110145D01*
X0193416Y0109578D01*
X0193983Y0110712D02*
X0196819Y0110712D01*
X0190251Y0101811D02*
X0188550Y0101811D01*
X0190251Y0101811D02*
X0190819Y0101244D01*
X0190819Y0099542D01*
X0188550Y0099542D01*
X0188550Y0098128D02*
X0188550Y0096426D01*
X0189117Y0095859D01*
X0189684Y0096426D01*
X0189684Y0098128D01*
X0190251Y0098128D02*
X0188550Y0098128D01*
X0190251Y0098128D02*
X0190819Y0097561D01*
X0190819Y0096426D01*
X0190819Y0094492D02*
X0190819Y0093924D01*
X0189684Y0092790D01*
X0188550Y0092790D02*
X0190819Y0092790D01*
X0190819Y0091376D02*
X0188550Y0091376D01*
X0190251Y0091376D02*
X0190251Y0089107D01*
X0190819Y0089107D02*
X0191953Y0090241D01*
X0190819Y0091376D01*
X0190819Y0089107D02*
X0188550Y0089107D01*
X0187983Y0087692D02*
X0187983Y0085424D01*
X0188550Y0084009D02*
X0190819Y0084009D01*
X0190819Y0081741D02*
X0189117Y0081741D01*
X0188550Y0082308D01*
X0188550Y0084009D01*
X0188550Y0080326D02*
X0188550Y0078625D01*
X0189117Y0078057D01*
X0190251Y0078057D01*
X0190819Y0078625D01*
X0190819Y0080326D01*
X0191953Y0080326D02*
X0188550Y0080326D01*
X0188550Y0076643D02*
X0188550Y0074374D01*
X0191953Y0074374D01*
X0191953Y0076643D01*
X0190251Y0075509D02*
X0190251Y0074374D01*
X0190251Y0072960D02*
X0189684Y0072393D01*
X0190819Y0072393D01*
X0190819Y0071258D01*
X0189684Y0071258D01*
X0189684Y0072393D01*
X0189117Y0072960D02*
X0188550Y0072393D01*
X0188550Y0071258D01*
X0189117Y0070691D01*
X0191386Y0070691D01*
X0191953Y0071258D01*
X0191953Y0072393D01*
X0191386Y0072960D01*
X0190251Y0072960D01*
X0194550Y0072840D02*
X0194550Y0074541D01*
X0195117Y0075108D01*
X0197386Y0075108D01*
X0197953Y0074541D01*
X0197953Y0072840D01*
X0194550Y0072840D01*
X0195684Y0071425D02*
X0195684Y0069157D01*
X0195117Y0069157D02*
X0196251Y0069157D01*
X0196819Y0069724D01*
X0196819Y0070858D01*
X0196251Y0071425D01*
X0195684Y0071425D01*
X0194550Y0070858D02*
X0194550Y0069724D01*
X0195117Y0069157D01*
X0194550Y0067742D02*
X0195684Y0066608D01*
X0195684Y0067175D02*
X0195684Y0065473D01*
X0194550Y0065473D02*
X0197953Y0065473D01*
X0197953Y0067175D01*
X0197386Y0067742D01*
X0196251Y0067742D01*
X0195684Y0067175D01*
X0184819Y0072346D02*
X0183117Y0072346D01*
X0179953Y0066514D02*
X0176550Y0066514D01*
X0176550Y0064813D01*
X0177117Y0064246D01*
X0178251Y0064246D01*
X0178819Y0064813D01*
X0178819Y0066514D01*
X0178251Y0062831D02*
X0177684Y0062831D01*
X0178251Y0062831D02*
X0178819Y0062264D01*
X0194550Y0077090D02*
X0195117Y0076523D01*
X0196251Y0076523D01*
X0196819Y0077090D01*
X0196819Y0078224D01*
X0196251Y0078791D01*
X0195684Y0078791D01*
X0195684Y0076523D01*
X0194550Y0077090D02*
X0194550Y0078224D01*
X0194550Y0080206D02*
X0194550Y0081907D01*
X0195117Y0082475D01*
X0195684Y0081907D01*
X0195684Y0080773D01*
X0196251Y0080206D01*
X0196819Y0080773D01*
X0196819Y0082475D01*
X0196819Y0083889D02*
X0196819Y0084456D01*
X0194550Y0084456D01*
X0194550Y0083889D02*
X0194550Y0085023D01*
X0195117Y0086345D02*
X0194550Y0086912D01*
X0194550Y0088613D01*
X0193983Y0088613D02*
X0196819Y0088613D01*
X0196819Y0086912D01*
X0196251Y0086345D01*
X0195117Y0086345D01*
X0193416Y0087479D02*
X0193416Y0088046D01*
X0193983Y0088613D01*
X0194550Y0090028D02*
X0196819Y0090028D01*
X0196819Y0091729D01*
X0196251Y0092296D01*
X0194550Y0092296D01*
X0195117Y0093711D02*
X0194550Y0094278D01*
X0194550Y0095412D01*
X0195684Y0095979D02*
X0195684Y0093711D01*
X0195117Y0093711D02*
X0196251Y0093711D01*
X0196819Y0094278D01*
X0196819Y0095412D01*
X0196251Y0095979D01*
X0195684Y0095979D01*
X0195117Y0097394D02*
X0194550Y0097961D01*
X0194550Y0099663D01*
X0197953Y0099663D01*
X0196819Y0099663D02*
X0196819Y0097961D01*
X0196251Y0097394D01*
X0195117Y0097394D01*
X0197953Y0084456D02*
X0198520Y0084456D01*
X0179953Y0085117D02*
X0176550Y0085117D01*
X0161953Y0087265D02*
X0161953Y0088967D01*
X0161386Y0089534D01*
X0159117Y0089534D01*
X0158550Y0088967D01*
X0158550Y0087265D01*
X0161953Y0087265D01*
X0160251Y0090948D02*
X0160819Y0091516D01*
X0160819Y0092650D01*
X0160251Y0093217D01*
X0159684Y0093217D01*
X0159684Y0090948D01*
X0159117Y0090948D02*
X0160251Y0090948D01*
X0159117Y0090948D02*
X0158550Y0091516D01*
X0158550Y0092650D01*
X0155953Y0088613D02*
X0155953Y0086345D01*
X0152550Y0086345D01*
X0152550Y0088613D01*
X0154251Y0087479D02*
X0154251Y0086345D01*
X0154819Y0081294D02*
X0154819Y0080726D01*
X0153684Y0079592D01*
X0152550Y0079592D02*
X0154819Y0079592D01*
X0154251Y0078178D02*
X0153684Y0078178D01*
X0153684Y0075909D01*
X0153117Y0075909D02*
X0154251Y0075909D01*
X0154819Y0076476D01*
X0154819Y0077610D01*
X0154251Y0078178D01*
X0152550Y0077610D02*
X0152550Y0076476D01*
X0153117Y0075909D01*
X0152550Y0074588D02*
X0153117Y0074021D01*
X0155386Y0074021D01*
X0154819Y0073454D02*
X0154819Y0074588D01*
X0154251Y0072039D02*
X0153684Y0072039D01*
X0153684Y0069770D01*
X0153117Y0069770D02*
X0154251Y0069770D01*
X0154819Y0070338D01*
X0154819Y0071472D01*
X0154251Y0072039D01*
X0152550Y0071472D02*
X0152550Y0070338D01*
X0153117Y0069770D01*
X0154251Y0068356D02*
X0153684Y0067789D01*
X0153684Y0066087D01*
X0152550Y0066087D02*
X0155953Y0066087D01*
X0155953Y0067789D01*
X0155386Y0068356D01*
X0154251Y0068356D01*
X0157416Y0068756D02*
X0157416Y0069323D01*
X0157983Y0069890D01*
X0160819Y0069890D01*
X0160819Y0068189D01*
X0160251Y0067622D01*
X0159117Y0067622D01*
X0158550Y0068189D01*
X0158550Y0069890D01*
X0160819Y0071305D02*
X0160819Y0071872D01*
X0158550Y0066301D02*
X0158550Y0065166D01*
X0158550Y0065734D02*
X0160819Y0065734D01*
X0160819Y0065166D01*
X0161953Y0065734D02*
X0162520Y0065734D01*
X0160819Y0063799D02*
X0160819Y0063231D01*
X0159684Y0062097D01*
X0158550Y0062097D02*
X0160819Y0062097D01*
X0161386Y0060683D02*
X0161953Y0060115D01*
X0161953Y0058981D01*
X0161386Y0058414D01*
X0159117Y0058414D01*
X0158550Y0058981D01*
X0158550Y0060115D01*
X0159117Y0060683D01*
X0161386Y0060683D01*
X0147117Y0059548D02*
X0146550Y0058981D01*
X0161953Y0098882D02*
X0162520Y0098882D01*
X0148819Y0115503D02*
X0146550Y0115503D01*
X0146550Y0116637D02*
X0148251Y0116637D01*
X0148819Y0117204D01*
X0148251Y0117771D01*
X0146550Y0117771D01*
X0148251Y0116637D02*
X0148819Y0116070D01*
X0148819Y0115503D01*
D11*
X0187320Y0001000D02*
X0012180Y0001000D01*
X0011910Y0001003D01*
X0011640Y0001013D01*
X0011370Y0001029D01*
X0011101Y0001052D01*
X0010832Y0001082D01*
X0010565Y0001117D01*
X0010298Y0001160D01*
X0010032Y0001208D01*
X0009768Y0001263D01*
X0009504Y0001325D01*
X0009243Y0001393D01*
X0008983Y0001467D01*
X0008725Y0001547D01*
X0008469Y0001634D01*
X0008216Y0001727D01*
X0007964Y0001825D01*
X0007715Y0001930D01*
X0007469Y0002041D01*
X0007225Y0002158D01*
X0006984Y0002281D01*
X0006747Y0002409D01*
X0006512Y0002543D01*
X0006281Y0002683D01*
X0006053Y0002828D01*
X0005829Y0002979D01*
X0005609Y0003135D01*
X0005392Y0003297D01*
X0005179Y0003463D01*
X0004971Y0003635D01*
X0004766Y0003812D01*
X0004566Y0003993D01*
X0004371Y0004180D01*
X0004180Y0004371D01*
X0003993Y0004566D01*
X0003812Y0004766D01*
X0003635Y0004971D01*
X0003463Y0005179D01*
X0003297Y0005392D01*
X0003135Y0005609D01*
X0002979Y0005829D01*
X0002828Y0006053D01*
X0002683Y0006281D01*
X0002543Y0006512D01*
X0002409Y0006747D01*
X0002281Y0006984D01*
X0002158Y0007225D01*
X0002041Y0007469D01*
X0001930Y0007715D01*
X0001825Y0007964D01*
X0001727Y0008216D01*
X0001634Y0008469D01*
X0001547Y0008725D01*
X0001467Y0008983D01*
X0001393Y0009243D01*
X0001325Y0009504D01*
X0001263Y0009768D01*
X0001208Y0010032D01*
X0001160Y0010298D01*
X0001117Y0010565D01*
X0001082Y0010832D01*
X0001052Y0011101D01*
X0001029Y0011370D01*
X0001013Y0011640D01*
X0001003Y0011910D01*
X0001000Y0012180D01*
X0001000Y0160692D01*
X0001003Y0160941D01*
X0001012Y0161190D01*
X0001027Y0161439D01*
X0001048Y0161687D01*
X0001075Y0161934D01*
X0001108Y0162181D01*
X0001147Y0162427D01*
X0001192Y0162672D01*
X0001243Y0162916D01*
X0001300Y0163159D01*
X0001362Y0163400D01*
X0001430Y0163640D01*
X0001505Y0163877D01*
X0001584Y0164113D01*
X0001670Y0164347D01*
X0001761Y0164579D01*
X0001858Y0164809D01*
X0001960Y0165036D01*
X0002068Y0165260D01*
X0002181Y0165482D01*
X0002299Y0165702D01*
X0002423Y0165918D01*
X0002552Y0166131D01*
X0002686Y0166341D01*
X0002825Y0166548D01*
X0002969Y0166751D01*
X0003117Y0166951D01*
X0003271Y0167147D01*
X0003429Y0167339D01*
X0003592Y0167527D01*
X0003760Y0167712D01*
X0003932Y0167892D01*
X0004108Y0168068D01*
X0004288Y0168240D01*
X0004473Y0168408D01*
X0004661Y0168571D01*
X0004853Y0168729D01*
X0005049Y0168883D01*
X0005249Y0169031D01*
X0005452Y0169175D01*
X0005659Y0169314D01*
X0005869Y0169448D01*
X0006082Y0169577D01*
X0006298Y0169701D01*
X0006518Y0169819D01*
X0006740Y0169932D01*
X0006964Y0170040D01*
X0007191Y0170142D01*
X0007421Y0170239D01*
X0007653Y0170330D01*
X0007887Y0170416D01*
X0008123Y0170495D01*
X0008360Y0170570D01*
X0008600Y0170638D01*
X0008841Y0170700D01*
X0009084Y0170757D01*
X0009328Y0170808D01*
X0009573Y0170853D01*
X0009819Y0170892D01*
X0010066Y0170925D01*
X0010313Y0170952D01*
X0010561Y0170973D01*
X0010810Y0170988D01*
X0011059Y0170997D01*
X0011308Y0171000D01*
X0188192Y0171000D01*
X0188441Y0170997D01*
X0188690Y0170988D01*
X0188939Y0170973D01*
X0189187Y0170952D01*
X0189434Y0170925D01*
X0189681Y0170892D01*
X0189927Y0170853D01*
X0190172Y0170808D01*
X0190416Y0170757D01*
X0190659Y0170700D01*
X0190900Y0170638D01*
X0191140Y0170570D01*
X0191377Y0170495D01*
X0191613Y0170416D01*
X0191847Y0170330D01*
X0192079Y0170239D01*
X0192309Y0170142D01*
X0192536Y0170040D01*
X0192760Y0169932D01*
X0192982Y0169819D01*
X0193202Y0169701D01*
X0193418Y0169577D01*
X0193631Y0169448D01*
X0193841Y0169314D01*
X0194048Y0169175D01*
X0194251Y0169031D01*
X0194451Y0168883D01*
X0194647Y0168729D01*
X0194839Y0168571D01*
X0195027Y0168408D01*
X0195212Y0168240D01*
X0195392Y0168068D01*
X0195568Y0167892D01*
X0195740Y0167712D01*
X0195908Y0167527D01*
X0196071Y0167339D01*
X0196229Y0167147D01*
X0196383Y0166951D01*
X0196531Y0166751D01*
X0196675Y0166548D01*
X0196814Y0166341D01*
X0196948Y0166131D01*
X0197077Y0165918D01*
X0197201Y0165702D01*
X0197319Y0165482D01*
X0197432Y0165260D01*
X0197540Y0165036D01*
X0197642Y0164809D01*
X0197739Y0164579D01*
X0197830Y0164347D01*
X0197916Y0164113D01*
X0197995Y0163877D01*
X0198070Y0163640D01*
X0198138Y0163400D01*
X0198200Y0163159D01*
X0198257Y0162916D01*
X0198308Y0162672D01*
X0198353Y0162427D01*
X0198392Y0162181D01*
X0198425Y0161934D01*
X0198452Y0161687D01*
X0198473Y0161439D01*
X0198488Y0161190D01*
X0198497Y0160941D01*
X0198500Y0160692D01*
X0198500Y0012180D01*
X0198497Y0011910D01*
X0198487Y0011640D01*
X0198471Y0011370D01*
X0198448Y0011101D01*
X0198418Y0010832D01*
X0198383Y0010565D01*
X0198340Y0010298D01*
X0198292Y0010032D01*
X0198237Y0009768D01*
X0198175Y0009504D01*
X0198107Y0009243D01*
X0198033Y0008983D01*
X0197953Y0008725D01*
X0197866Y0008469D01*
X0197773Y0008216D01*
X0197675Y0007964D01*
X0197570Y0007715D01*
X0197459Y0007469D01*
X0197342Y0007225D01*
X0197219Y0006984D01*
X0197091Y0006747D01*
X0196957Y0006512D01*
X0196817Y0006281D01*
X0196672Y0006053D01*
X0196521Y0005829D01*
X0196365Y0005609D01*
X0196203Y0005392D01*
X0196037Y0005179D01*
X0195865Y0004971D01*
X0195688Y0004766D01*
X0195507Y0004566D01*
X0195320Y0004371D01*
X0195129Y0004180D01*
X0194934Y0003993D01*
X0194734Y0003812D01*
X0194529Y0003635D01*
X0194321Y0003463D01*
X0194108Y0003297D01*
X0193891Y0003135D01*
X0193671Y0002979D01*
X0193447Y0002828D01*
X0193219Y0002683D01*
X0192988Y0002543D01*
X0192753Y0002409D01*
X0192516Y0002281D01*
X0192275Y0002158D01*
X0192031Y0002041D01*
X0191785Y0001930D01*
X0191536Y0001825D01*
X0191284Y0001727D01*
X0191031Y0001634D01*
X0190775Y0001547D01*
X0190517Y0001467D01*
X0190257Y0001393D01*
X0189996Y0001325D01*
X0189732Y0001263D01*
X0189468Y0001208D01*
X0189202Y0001160D01*
X0188935Y0001117D01*
X0188668Y0001082D01*
X0188399Y0001052D01*
X0188130Y0001029D01*
X0187860Y0001013D01*
X0187590Y0001003D01*
X0187320Y0001000D01*
X0182988Y0043500D02*
X0182990Y0043648D01*
X0182996Y0043796D01*
X0183006Y0043944D01*
X0183020Y0044091D01*
X0183038Y0044238D01*
X0183059Y0044384D01*
X0183085Y0044530D01*
X0183115Y0044675D01*
X0183148Y0044819D01*
X0183186Y0044962D01*
X0183227Y0045104D01*
X0183272Y0045245D01*
X0183320Y0045385D01*
X0183373Y0045524D01*
X0183429Y0045661D01*
X0183489Y0045796D01*
X0183552Y0045930D01*
X0183619Y0046062D01*
X0183690Y0046192D01*
X0183764Y0046320D01*
X0183841Y0046446D01*
X0183922Y0046570D01*
X0184006Y0046692D01*
X0184093Y0046811D01*
X0184184Y0046928D01*
X0184278Y0047043D01*
X0184374Y0047155D01*
X0184474Y0047265D01*
X0184576Y0047371D01*
X0184682Y0047475D01*
X0184790Y0047576D01*
X0184901Y0047674D01*
X0185014Y0047770D01*
X0185130Y0047862D01*
X0185248Y0047951D01*
X0185369Y0048036D01*
X0185492Y0048119D01*
X0185617Y0048198D01*
X0185744Y0048274D01*
X0185873Y0048346D01*
X0186004Y0048415D01*
X0186137Y0048480D01*
X0186272Y0048541D01*
X0186408Y0048599D01*
X0186545Y0048654D01*
X0186684Y0048704D01*
X0186825Y0048751D01*
X0186966Y0048794D01*
X0187109Y0048834D01*
X0187253Y0048869D01*
X0187397Y0048901D01*
X0187543Y0048928D01*
X0187689Y0048952D01*
X0187836Y0048972D01*
X0187983Y0048988D01*
X0188130Y0049000D01*
X0188278Y0049008D01*
X0188426Y0049012D01*
X0188574Y0049012D01*
X0188722Y0049008D01*
X0188870Y0049000D01*
X0189017Y0048988D01*
X0189164Y0048972D01*
X0189311Y0048952D01*
X0189457Y0048928D01*
X0189603Y0048901D01*
X0189747Y0048869D01*
X0189891Y0048834D01*
X0190034Y0048794D01*
X0190175Y0048751D01*
X0190316Y0048704D01*
X0190455Y0048654D01*
X0190592Y0048599D01*
X0190728Y0048541D01*
X0190863Y0048480D01*
X0190996Y0048415D01*
X0191127Y0048346D01*
X0191256Y0048274D01*
X0191383Y0048198D01*
X0191508Y0048119D01*
X0191631Y0048036D01*
X0191752Y0047951D01*
X0191870Y0047862D01*
X0191986Y0047770D01*
X0192099Y0047674D01*
X0192210Y0047576D01*
X0192318Y0047475D01*
X0192424Y0047371D01*
X0192526Y0047265D01*
X0192626Y0047155D01*
X0192722Y0047043D01*
X0192816Y0046928D01*
X0192907Y0046811D01*
X0192994Y0046692D01*
X0193078Y0046570D01*
X0193159Y0046446D01*
X0193236Y0046320D01*
X0193310Y0046192D01*
X0193381Y0046062D01*
X0193448Y0045930D01*
X0193511Y0045796D01*
X0193571Y0045661D01*
X0193627Y0045524D01*
X0193680Y0045385D01*
X0193728Y0045245D01*
X0193773Y0045104D01*
X0193814Y0044962D01*
X0193852Y0044819D01*
X0193885Y0044675D01*
X0193915Y0044530D01*
X0193941Y0044384D01*
X0193962Y0044238D01*
X0193980Y0044091D01*
X0193994Y0043944D01*
X0194004Y0043796D01*
X0194010Y0043648D01*
X0194012Y0043500D01*
X0194010Y0043352D01*
X0194004Y0043204D01*
X0193994Y0043056D01*
X0193980Y0042909D01*
X0193962Y0042762D01*
X0193941Y0042616D01*
X0193915Y0042470D01*
X0193885Y0042325D01*
X0193852Y0042181D01*
X0193814Y0042038D01*
X0193773Y0041896D01*
X0193728Y0041755D01*
X0193680Y0041615D01*
X0193627Y0041476D01*
X0193571Y0041339D01*
X0193511Y0041204D01*
X0193448Y0041070D01*
X0193381Y0040938D01*
X0193310Y0040808D01*
X0193236Y0040680D01*
X0193159Y0040554D01*
X0193078Y0040430D01*
X0192994Y0040308D01*
X0192907Y0040189D01*
X0192816Y0040072D01*
X0192722Y0039957D01*
X0192626Y0039845D01*
X0192526Y0039735D01*
X0192424Y0039629D01*
X0192318Y0039525D01*
X0192210Y0039424D01*
X0192099Y0039326D01*
X0191986Y0039230D01*
X0191870Y0039138D01*
X0191752Y0039049D01*
X0191631Y0038964D01*
X0191508Y0038881D01*
X0191383Y0038802D01*
X0191256Y0038726D01*
X0191127Y0038654D01*
X0190996Y0038585D01*
X0190863Y0038520D01*
X0190728Y0038459D01*
X0190592Y0038401D01*
X0190455Y0038346D01*
X0190316Y0038296D01*
X0190175Y0038249D01*
X0190034Y0038206D01*
X0189891Y0038166D01*
X0189747Y0038131D01*
X0189603Y0038099D01*
X0189457Y0038072D01*
X0189311Y0038048D01*
X0189164Y0038028D01*
X0189017Y0038012D01*
X0188870Y0038000D01*
X0188722Y0037992D01*
X0188574Y0037988D01*
X0188426Y0037988D01*
X0188278Y0037992D01*
X0188130Y0038000D01*
X0187983Y0038012D01*
X0187836Y0038028D01*
X0187689Y0038048D01*
X0187543Y0038072D01*
X0187397Y0038099D01*
X0187253Y0038131D01*
X0187109Y0038166D01*
X0186966Y0038206D01*
X0186825Y0038249D01*
X0186684Y0038296D01*
X0186545Y0038346D01*
X0186408Y0038401D01*
X0186272Y0038459D01*
X0186137Y0038520D01*
X0186004Y0038585D01*
X0185873Y0038654D01*
X0185744Y0038726D01*
X0185617Y0038802D01*
X0185492Y0038881D01*
X0185369Y0038964D01*
X0185248Y0039049D01*
X0185130Y0039138D01*
X0185014Y0039230D01*
X0184901Y0039326D01*
X0184790Y0039424D01*
X0184682Y0039525D01*
X0184576Y0039629D01*
X0184474Y0039735D01*
X0184374Y0039845D01*
X0184278Y0039957D01*
X0184184Y0040072D01*
X0184093Y0040189D01*
X0184006Y0040308D01*
X0183922Y0040430D01*
X0183841Y0040554D01*
X0183764Y0040680D01*
X0183690Y0040808D01*
X0183619Y0040938D01*
X0183552Y0041070D01*
X0183489Y0041204D01*
X0183429Y0041339D01*
X0183373Y0041476D01*
X0183320Y0041615D01*
X0183272Y0041755D01*
X0183227Y0041896D01*
X0183186Y0042038D01*
X0183148Y0042181D01*
X0183115Y0042325D01*
X0183085Y0042470D01*
X0183059Y0042616D01*
X0183038Y0042762D01*
X0183020Y0042909D01*
X0183006Y0043056D01*
X0182996Y0043204D01*
X0182990Y0043352D01*
X0182988Y0043500D01*
X0180488Y0158500D02*
X0180490Y0158648D01*
X0180496Y0158796D01*
X0180506Y0158944D01*
X0180520Y0159091D01*
X0180538Y0159238D01*
X0180559Y0159384D01*
X0180585Y0159530D01*
X0180615Y0159675D01*
X0180648Y0159819D01*
X0180686Y0159962D01*
X0180727Y0160104D01*
X0180772Y0160245D01*
X0180820Y0160385D01*
X0180873Y0160524D01*
X0180929Y0160661D01*
X0180989Y0160796D01*
X0181052Y0160930D01*
X0181119Y0161062D01*
X0181190Y0161192D01*
X0181264Y0161320D01*
X0181341Y0161446D01*
X0181422Y0161570D01*
X0181506Y0161692D01*
X0181593Y0161811D01*
X0181684Y0161928D01*
X0181778Y0162043D01*
X0181874Y0162155D01*
X0181974Y0162265D01*
X0182076Y0162371D01*
X0182182Y0162475D01*
X0182290Y0162576D01*
X0182401Y0162674D01*
X0182514Y0162770D01*
X0182630Y0162862D01*
X0182748Y0162951D01*
X0182869Y0163036D01*
X0182992Y0163119D01*
X0183117Y0163198D01*
X0183244Y0163274D01*
X0183373Y0163346D01*
X0183504Y0163415D01*
X0183637Y0163480D01*
X0183772Y0163541D01*
X0183908Y0163599D01*
X0184045Y0163654D01*
X0184184Y0163704D01*
X0184325Y0163751D01*
X0184466Y0163794D01*
X0184609Y0163834D01*
X0184753Y0163869D01*
X0184897Y0163901D01*
X0185043Y0163928D01*
X0185189Y0163952D01*
X0185336Y0163972D01*
X0185483Y0163988D01*
X0185630Y0164000D01*
X0185778Y0164008D01*
X0185926Y0164012D01*
X0186074Y0164012D01*
X0186222Y0164008D01*
X0186370Y0164000D01*
X0186517Y0163988D01*
X0186664Y0163972D01*
X0186811Y0163952D01*
X0186957Y0163928D01*
X0187103Y0163901D01*
X0187247Y0163869D01*
X0187391Y0163834D01*
X0187534Y0163794D01*
X0187675Y0163751D01*
X0187816Y0163704D01*
X0187955Y0163654D01*
X0188092Y0163599D01*
X0188228Y0163541D01*
X0188363Y0163480D01*
X0188496Y0163415D01*
X0188627Y0163346D01*
X0188756Y0163274D01*
X0188883Y0163198D01*
X0189008Y0163119D01*
X0189131Y0163036D01*
X0189252Y0162951D01*
X0189370Y0162862D01*
X0189486Y0162770D01*
X0189599Y0162674D01*
X0189710Y0162576D01*
X0189818Y0162475D01*
X0189924Y0162371D01*
X0190026Y0162265D01*
X0190126Y0162155D01*
X0190222Y0162043D01*
X0190316Y0161928D01*
X0190407Y0161811D01*
X0190494Y0161692D01*
X0190578Y0161570D01*
X0190659Y0161446D01*
X0190736Y0161320D01*
X0190810Y0161192D01*
X0190881Y0161062D01*
X0190948Y0160930D01*
X0191011Y0160796D01*
X0191071Y0160661D01*
X0191127Y0160524D01*
X0191180Y0160385D01*
X0191228Y0160245D01*
X0191273Y0160104D01*
X0191314Y0159962D01*
X0191352Y0159819D01*
X0191385Y0159675D01*
X0191415Y0159530D01*
X0191441Y0159384D01*
X0191462Y0159238D01*
X0191480Y0159091D01*
X0191494Y0158944D01*
X0191504Y0158796D01*
X0191510Y0158648D01*
X0191512Y0158500D01*
X0191510Y0158352D01*
X0191504Y0158204D01*
X0191494Y0158056D01*
X0191480Y0157909D01*
X0191462Y0157762D01*
X0191441Y0157616D01*
X0191415Y0157470D01*
X0191385Y0157325D01*
X0191352Y0157181D01*
X0191314Y0157038D01*
X0191273Y0156896D01*
X0191228Y0156755D01*
X0191180Y0156615D01*
X0191127Y0156476D01*
X0191071Y0156339D01*
X0191011Y0156204D01*
X0190948Y0156070D01*
X0190881Y0155938D01*
X0190810Y0155808D01*
X0190736Y0155680D01*
X0190659Y0155554D01*
X0190578Y0155430D01*
X0190494Y0155308D01*
X0190407Y0155189D01*
X0190316Y0155072D01*
X0190222Y0154957D01*
X0190126Y0154845D01*
X0190026Y0154735D01*
X0189924Y0154629D01*
X0189818Y0154525D01*
X0189710Y0154424D01*
X0189599Y0154326D01*
X0189486Y0154230D01*
X0189370Y0154138D01*
X0189252Y0154049D01*
X0189131Y0153964D01*
X0189008Y0153881D01*
X0188883Y0153802D01*
X0188756Y0153726D01*
X0188627Y0153654D01*
X0188496Y0153585D01*
X0188363Y0153520D01*
X0188228Y0153459D01*
X0188092Y0153401D01*
X0187955Y0153346D01*
X0187816Y0153296D01*
X0187675Y0153249D01*
X0187534Y0153206D01*
X0187391Y0153166D01*
X0187247Y0153131D01*
X0187103Y0153099D01*
X0186957Y0153072D01*
X0186811Y0153048D01*
X0186664Y0153028D01*
X0186517Y0153012D01*
X0186370Y0153000D01*
X0186222Y0152992D01*
X0186074Y0152988D01*
X0185926Y0152988D01*
X0185778Y0152992D01*
X0185630Y0153000D01*
X0185483Y0153012D01*
X0185336Y0153028D01*
X0185189Y0153048D01*
X0185043Y0153072D01*
X0184897Y0153099D01*
X0184753Y0153131D01*
X0184609Y0153166D01*
X0184466Y0153206D01*
X0184325Y0153249D01*
X0184184Y0153296D01*
X0184045Y0153346D01*
X0183908Y0153401D01*
X0183772Y0153459D01*
X0183637Y0153520D01*
X0183504Y0153585D01*
X0183373Y0153654D01*
X0183244Y0153726D01*
X0183117Y0153802D01*
X0182992Y0153881D01*
X0182869Y0153964D01*
X0182748Y0154049D01*
X0182630Y0154138D01*
X0182514Y0154230D01*
X0182401Y0154326D01*
X0182290Y0154424D01*
X0182182Y0154525D01*
X0182076Y0154629D01*
X0181974Y0154735D01*
X0181874Y0154845D01*
X0181778Y0154957D01*
X0181684Y0155072D01*
X0181593Y0155189D01*
X0181506Y0155308D01*
X0181422Y0155430D01*
X0181341Y0155554D01*
X0181264Y0155680D01*
X0181190Y0155808D01*
X0181119Y0155938D01*
X0181052Y0156070D01*
X0180989Y0156204D01*
X0180929Y0156339D01*
X0180873Y0156476D01*
X0180820Y0156615D01*
X0180772Y0156755D01*
X0180727Y0156896D01*
X0180686Y0157038D01*
X0180648Y0157181D01*
X0180615Y0157325D01*
X0180585Y0157470D01*
X0180559Y0157616D01*
X0180538Y0157762D01*
X0180520Y0157909D01*
X0180506Y0158056D01*
X0180496Y0158204D01*
X0180490Y0158352D01*
X0180488Y0158500D01*
X0007988Y0158500D02*
X0007990Y0158648D01*
X0007996Y0158796D01*
X0008006Y0158944D01*
X0008020Y0159091D01*
X0008038Y0159238D01*
X0008059Y0159384D01*
X0008085Y0159530D01*
X0008115Y0159675D01*
X0008148Y0159819D01*
X0008186Y0159962D01*
X0008227Y0160104D01*
X0008272Y0160245D01*
X0008320Y0160385D01*
X0008373Y0160524D01*
X0008429Y0160661D01*
X0008489Y0160796D01*
X0008552Y0160930D01*
X0008619Y0161062D01*
X0008690Y0161192D01*
X0008764Y0161320D01*
X0008841Y0161446D01*
X0008922Y0161570D01*
X0009006Y0161692D01*
X0009093Y0161811D01*
X0009184Y0161928D01*
X0009278Y0162043D01*
X0009374Y0162155D01*
X0009474Y0162265D01*
X0009576Y0162371D01*
X0009682Y0162475D01*
X0009790Y0162576D01*
X0009901Y0162674D01*
X0010014Y0162770D01*
X0010130Y0162862D01*
X0010248Y0162951D01*
X0010369Y0163036D01*
X0010492Y0163119D01*
X0010617Y0163198D01*
X0010744Y0163274D01*
X0010873Y0163346D01*
X0011004Y0163415D01*
X0011137Y0163480D01*
X0011272Y0163541D01*
X0011408Y0163599D01*
X0011545Y0163654D01*
X0011684Y0163704D01*
X0011825Y0163751D01*
X0011966Y0163794D01*
X0012109Y0163834D01*
X0012253Y0163869D01*
X0012397Y0163901D01*
X0012543Y0163928D01*
X0012689Y0163952D01*
X0012836Y0163972D01*
X0012983Y0163988D01*
X0013130Y0164000D01*
X0013278Y0164008D01*
X0013426Y0164012D01*
X0013574Y0164012D01*
X0013722Y0164008D01*
X0013870Y0164000D01*
X0014017Y0163988D01*
X0014164Y0163972D01*
X0014311Y0163952D01*
X0014457Y0163928D01*
X0014603Y0163901D01*
X0014747Y0163869D01*
X0014891Y0163834D01*
X0015034Y0163794D01*
X0015175Y0163751D01*
X0015316Y0163704D01*
X0015455Y0163654D01*
X0015592Y0163599D01*
X0015728Y0163541D01*
X0015863Y0163480D01*
X0015996Y0163415D01*
X0016127Y0163346D01*
X0016256Y0163274D01*
X0016383Y0163198D01*
X0016508Y0163119D01*
X0016631Y0163036D01*
X0016752Y0162951D01*
X0016870Y0162862D01*
X0016986Y0162770D01*
X0017099Y0162674D01*
X0017210Y0162576D01*
X0017318Y0162475D01*
X0017424Y0162371D01*
X0017526Y0162265D01*
X0017626Y0162155D01*
X0017722Y0162043D01*
X0017816Y0161928D01*
X0017907Y0161811D01*
X0017994Y0161692D01*
X0018078Y0161570D01*
X0018159Y0161446D01*
X0018236Y0161320D01*
X0018310Y0161192D01*
X0018381Y0161062D01*
X0018448Y0160930D01*
X0018511Y0160796D01*
X0018571Y0160661D01*
X0018627Y0160524D01*
X0018680Y0160385D01*
X0018728Y0160245D01*
X0018773Y0160104D01*
X0018814Y0159962D01*
X0018852Y0159819D01*
X0018885Y0159675D01*
X0018915Y0159530D01*
X0018941Y0159384D01*
X0018962Y0159238D01*
X0018980Y0159091D01*
X0018994Y0158944D01*
X0019004Y0158796D01*
X0019010Y0158648D01*
X0019012Y0158500D01*
X0019010Y0158352D01*
X0019004Y0158204D01*
X0018994Y0158056D01*
X0018980Y0157909D01*
X0018962Y0157762D01*
X0018941Y0157616D01*
X0018915Y0157470D01*
X0018885Y0157325D01*
X0018852Y0157181D01*
X0018814Y0157038D01*
X0018773Y0156896D01*
X0018728Y0156755D01*
X0018680Y0156615D01*
X0018627Y0156476D01*
X0018571Y0156339D01*
X0018511Y0156204D01*
X0018448Y0156070D01*
X0018381Y0155938D01*
X0018310Y0155808D01*
X0018236Y0155680D01*
X0018159Y0155554D01*
X0018078Y0155430D01*
X0017994Y0155308D01*
X0017907Y0155189D01*
X0017816Y0155072D01*
X0017722Y0154957D01*
X0017626Y0154845D01*
X0017526Y0154735D01*
X0017424Y0154629D01*
X0017318Y0154525D01*
X0017210Y0154424D01*
X0017099Y0154326D01*
X0016986Y0154230D01*
X0016870Y0154138D01*
X0016752Y0154049D01*
X0016631Y0153964D01*
X0016508Y0153881D01*
X0016383Y0153802D01*
X0016256Y0153726D01*
X0016127Y0153654D01*
X0015996Y0153585D01*
X0015863Y0153520D01*
X0015728Y0153459D01*
X0015592Y0153401D01*
X0015455Y0153346D01*
X0015316Y0153296D01*
X0015175Y0153249D01*
X0015034Y0153206D01*
X0014891Y0153166D01*
X0014747Y0153131D01*
X0014603Y0153099D01*
X0014457Y0153072D01*
X0014311Y0153048D01*
X0014164Y0153028D01*
X0014017Y0153012D01*
X0013870Y0153000D01*
X0013722Y0152992D01*
X0013574Y0152988D01*
X0013426Y0152988D01*
X0013278Y0152992D01*
X0013130Y0153000D01*
X0012983Y0153012D01*
X0012836Y0153028D01*
X0012689Y0153048D01*
X0012543Y0153072D01*
X0012397Y0153099D01*
X0012253Y0153131D01*
X0012109Y0153166D01*
X0011966Y0153206D01*
X0011825Y0153249D01*
X0011684Y0153296D01*
X0011545Y0153346D01*
X0011408Y0153401D01*
X0011272Y0153459D01*
X0011137Y0153520D01*
X0011004Y0153585D01*
X0010873Y0153654D01*
X0010744Y0153726D01*
X0010617Y0153802D01*
X0010492Y0153881D01*
X0010369Y0153964D01*
X0010248Y0154049D01*
X0010130Y0154138D01*
X0010014Y0154230D01*
X0009901Y0154326D01*
X0009790Y0154424D01*
X0009682Y0154525D01*
X0009576Y0154629D01*
X0009474Y0154735D01*
X0009374Y0154845D01*
X0009278Y0154957D01*
X0009184Y0155072D01*
X0009093Y0155189D01*
X0009006Y0155308D01*
X0008922Y0155430D01*
X0008841Y0155554D01*
X0008764Y0155680D01*
X0008690Y0155808D01*
X0008619Y0155938D01*
X0008552Y0156070D01*
X0008489Y0156204D01*
X0008429Y0156339D01*
X0008373Y0156476D01*
X0008320Y0156615D01*
X0008272Y0156755D01*
X0008227Y0156896D01*
X0008186Y0157038D01*
X0008148Y0157181D01*
X0008115Y0157325D01*
X0008085Y0157470D01*
X0008059Y0157616D01*
X0008038Y0157762D01*
X0008020Y0157909D01*
X0008006Y0158056D01*
X0007996Y0158204D01*
X0007990Y0158352D01*
X0007988Y0158500D01*
X0005488Y0046000D02*
X0005490Y0046148D01*
X0005496Y0046296D01*
X0005506Y0046444D01*
X0005520Y0046591D01*
X0005538Y0046738D01*
X0005559Y0046884D01*
X0005585Y0047030D01*
X0005615Y0047175D01*
X0005648Y0047319D01*
X0005686Y0047462D01*
X0005727Y0047604D01*
X0005772Y0047745D01*
X0005820Y0047885D01*
X0005873Y0048024D01*
X0005929Y0048161D01*
X0005989Y0048296D01*
X0006052Y0048430D01*
X0006119Y0048562D01*
X0006190Y0048692D01*
X0006264Y0048820D01*
X0006341Y0048946D01*
X0006422Y0049070D01*
X0006506Y0049192D01*
X0006593Y0049311D01*
X0006684Y0049428D01*
X0006778Y0049543D01*
X0006874Y0049655D01*
X0006974Y0049765D01*
X0007076Y0049871D01*
X0007182Y0049975D01*
X0007290Y0050076D01*
X0007401Y0050174D01*
X0007514Y0050270D01*
X0007630Y0050362D01*
X0007748Y0050451D01*
X0007869Y0050536D01*
X0007992Y0050619D01*
X0008117Y0050698D01*
X0008244Y0050774D01*
X0008373Y0050846D01*
X0008504Y0050915D01*
X0008637Y0050980D01*
X0008772Y0051041D01*
X0008908Y0051099D01*
X0009045Y0051154D01*
X0009184Y0051204D01*
X0009325Y0051251D01*
X0009466Y0051294D01*
X0009609Y0051334D01*
X0009753Y0051369D01*
X0009897Y0051401D01*
X0010043Y0051428D01*
X0010189Y0051452D01*
X0010336Y0051472D01*
X0010483Y0051488D01*
X0010630Y0051500D01*
X0010778Y0051508D01*
X0010926Y0051512D01*
X0011074Y0051512D01*
X0011222Y0051508D01*
X0011370Y0051500D01*
X0011517Y0051488D01*
X0011664Y0051472D01*
X0011811Y0051452D01*
X0011957Y0051428D01*
X0012103Y0051401D01*
X0012247Y0051369D01*
X0012391Y0051334D01*
X0012534Y0051294D01*
X0012675Y0051251D01*
X0012816Y0051204D01*
X0012955Y0051154D01*
X0013092Y0051099D01*
X0013228Y0051041D01*
X0013363Y0050980D01*
X0013496Y0050915D01*
X0013627Y0050846D01*
X0013756Y0050774D01*
X0013883Y0050698D01*
X0014008Y0050619D01*
X0014131Y0050536D01*
X0014252Y0050451D01*
X0014370Y0050362D01*
X0014486Y0050270D01*
X0014599Y0050174D01*
X0014710Y0050076D01*
X0014818Y0049975D01*
X0014924Y0049871D01*
X0015026Y0049765D01*
X0015126Y0049655D01*
X0015222Y0049543D01*
X0015316Y0049428D01*
X0015407Y0049311D01*
X0015494Y0049192D01*
X0015578Y0049070D01*
X0015659Y0048946D01*
X0015736Y0048820D01*
X0015810Y0048692D01*
X0015881Y0048562D01*
X0015948Y0048430D01*
X0016011Y0048296D01*
X0016071Y0048161D01*
X0016127Y0048024D01*
X0016180Y0047885D01*
X0016228Y0047745D01*
X0016273Y0047604D01*
X0016314Y0047462D01*
X0016352Y0047319D01*
X0016385Y0047175D01*
X0016415Y0047030D01*
X0016441Y0046884D01*
X0016462Y0046738D01*
X0016480Y0046591D01*
X0016494Y0046444D01*
X0016504Y0046296D01*
X0016510Y0046148D01*
X0016512Y0046000D01*
X0016510Y0045852D01*
X0016504Y0045704D01*
X0016494Y0045556D01*
X0016480Y0045409D01*
X0016462Y0045262D01*
X0016441Y0045116D01*
X0016415Y0044970D01*
X0016385Y0044825D01*
X0016352Y0044681D01*
X0016314Y0044538D01*
X0016273Y0044396D01*
X0016228Y0044255D01*
X0016180Y0044115D01*
X0016127Y0043976D01*
X0016071Y0043839D01*
X0016011Y0043704D01*
X0015948Y0043570D01*
X0015881Y0043438D01*
X0015810Y0043308D01*
X0015736Y0043180D01*
X0015659Y0043054D01*
X0015578Y0042930D01*
X0015494Y0042808D01*
X0015407Y0042689D01*
X0015316Y0042572D01*
X0015222Y0042457D01*
X0015126Y0042345D01*
X0015026Y0042235D01*
X0014924Y0042129D01*
X0014818Y0042025D01*
X0014710Y0041924D01*
X0014599Y0041826D01*
X0014486Y0041730D01*
X0014370Y0041638D01*
X0014252Y0041549D01*
X0014131Y0041464D01*
X0014008Y0041381D01*
X0013883Y0041302D01*
X0013756Y0041226D01*
X0013627Y0041154D01*
X0013496Y0041085D01*
X0013363Y0041020D01*
X0013228Y0040959D01*
X0013092Y0040901D01*
X0012955Y0040846D01*
X0012816Y0040796D01*
X0012675Y0040749D01*
X0012534Y0040706D01*
X0012391Y0040666D01*
X0012247Y0040631D01*
X0012103Y0040599D01*
X0011957Y0040572D01*
X0011811Y0040548D01*
X0011664Y0040528D01*
X0011517Y0040512D01*
X0011370Y0040500D01*
X0011222Y0040492D01*
X0011074Y0040488D01*
X0010926Y0040488D01*
X0010778Y0040492D01*
X0010630Y0040500D01*
X0010483Y0040512D01*
X0010336Y0040528D01*
X0010189Y0040548D01*
X0010043Y0040572D01*
X0009897Y0040599D01*
X0009753Y0040631D01*
X0009609Y0040666D01*
X0009466Y0040706D01*
X0009325Y0040749D01*
X0009184Y0040796D01*
X0009045Y0040846D01*
X0008908Y0040901D01*
X0008772Y0040959D01*
X0008637Y0041020D01*
X0008504Y0041085D01*
X0008373Y0041154D01*
X0008244Y0041226D01*
X0008117Y0041302D01*
X0007992Y0041381D01*
X0007869Y0041464D01*
X0007748Y0041549D01*
X0007630Y0041638D01*
X0007514Y0041730D01*
X0007401Y0041826D01*
X0007290Y0041924D01*
X0007182Y0042025D01*
X0007076Y0042129D01*
X0006974Y0042235D01*
X0006874Y0042345D01*
X0006778Y0042457D01*
X0006684Y0042572D01*
X0006593Y0042689D01*
X0006506Y0042808D01*
X0006422Y0042930D01*
X0006341Y0043054D01*
X0006264Y0043180D01*
X0006190Y0043308D01*
X0006119Y0043438D01*
X0006052Y0043570D01*
X0005989Y0043704D01*
X0005929Y0043839D01*
X0005873Y0043976D01*
X0005820Y0044115D01*
X0005772Y0044255D01*
X0005727Y0044396D01*
X0005686Y0044538D01*
X0005648Y0044681D01*
X0005615Y0044825D01*
X0005585Y0044970D01*
X0005559Y0045116D01*
X0005538Y0045262D01*
X0005520Y0045409D01*
X0005506Y0045556D01*
X0005496Y0045704D01*
X0005490Y0045852D01*
X0005488Y0046000D01*
M02*
