%
M48
M72
T01C0.02362
T02C0.02800
T03C0.03200
T04C0.03500
T05C0.04000
T06C0.05900
T07C0.11024
%
T01
X120000Y97500
X120000Y115000
X105000Y90000
X105000Y115000
X47500Y102500
X60000Y115000
X75000Y115000
X90000Y82500
X90000Y115000
X135000Y92500
X135000Y115000
T02
X40000Y57500
X40000Y27500
X133750Y57500
X139750Y52500
X133750Y47500
X135500Y27500
X129500Y32500
X135500Y37500
X90000Y50000
X120000Y50000
X90000Y42500
X120000Y42500
X120000Y57500
X90000Y57500
X120000Y35000
X90000Y35000
T03
X52500Y27500
X62500Y27500
X62500Y57500
X52500Y57500
X72500Y27500
X72500Y57500
T04
X110000Y2500
X120000Y2500
X130000Y2500
X140000Y2500
X7500Y67500
X7500Y57500
X7500Y47500
X7500Y37500
X7500Y27500
X7500Y17500
X130000Y72500
X120000Y72500
X110000Y72500
X100000Y72500
X90000Y72500
X80000Y72500
X70000Y72500
X60000Y72500
X50000Y72500
X40000Y72500
X30000Y72500
X20000Y72500
X20000Y12500
X30000Y12500
X40000Y12500
X50000Y12500
X60000Y12500
X70000Y12500
X80000Y12500
X90000Y12500
X100000Y12500
X110000Y12500
X120000Y12500
X130000Y12500
X20000Y32500
X20000Y22500
X95000Y22500
X85000Y22500
X157500Y92500
X147500Y92500
X185000Y92500
X175000Y92500
T05
X13600Y-29900
X31400Y-29900
X63600Y-29900
X81400Y-29900
X163600Y-29900
X181400Y-29900
X113600Y-29900
X131400Y-29900
T06
X8700Y-20100
X36300Y-20100
X58700Y-20100
X86300Y-20100
X158700Y-20100
X186300Y-20100
X108700Y-20100
X136300Y-20100
T07
X12500Y112500
X185000Y112500
X187500Y-2500
X10000Y0
M30
